Coordinates
version=1
nRows=9
nColumns=63
inDegrees=yes

Units are S.I. units (second, meters, Newtons, ...)
If the header above contains a line with 'inDegrees', this indicates whether rotational values are in degrees (yes) or radians (no).

endheader
time	pelvis_tilt	pelvis_list	pelvis_rotation	pelvis_tx	pelvis_ty	pelvis_tz	hip_flexion_r	hip_adduction_r	hip_rotation_r	knee_angle_r	knee_angle_r_beta	ankle_angle_r	subtalar_angle_r	mtp_angle_r	hip_flexion_l	hip_adduction_l	hip_rotation_l	knee_angle_l	knee_angle_l_beta	ankle_angle_l	subtalar_angle_l	mtp_angle_l	L5_S1_Flex_Ext	L5_S1_Lat_Bending	L5_S1_axial_rotation	L4_L5_Flex_Ext	L4_L5_Lat_Bending	L4_L5_axial_rotation	L3_L4_Flex_Ext	L3_L4_Lat_Bending	L3_L4_axial_rotation	L2_L3_Flex_Ext	L2_L3_Lat_Bending	L2_L3_axial_rotation	L1_L2_Flex_Ext	L1_L2_Lat_Bending	L1_L2_axial_rotation	L1_T12_Flex_Ext	L1_T12_Lat_Bending	L1_T12_axial_rotation	Abs_r3	Abs_r2	Abs_r1	Abs_t1	Abs_t2	neck_flexion	neck_bending	neck_rotation	arm_flex_r	arm_add_r	arm_rot_r	elbow_flex_r	pro_sup_r	wrist_flex_r	wrist_dev_r	arm_flex_l	arm_add_l	arm_rot_l	elbow_flex_l	pro_sup_l	wrist_flex_l	wrist_dev_l
      3.08163265	     -0.15285712	     -2.43842114	     89.85290657	      0.21385859	      0.76323373	      0.77943269	      2.25288830	     -1.20041474	    -14.58356361	      8.34971689	      0.14573005	     30.96384804	     17.32102601	      0.00000000	      5.77375751	     -1.22018002	     -7.00705066	     13.56577454	      0.23676743	     30.08601859	     11.92105702	      0.00000000	     -0.01664431	      0.09609283	      0.00106147	     -0.03091014	      0.12780346	      0.00112781	     -0.02734493	      0.23364010	      0.00112781	     -0.01902278	      0.23364010	      0.00092879	     -0.01545590	      0.19595249	      0.00086245	     -0.00951056	      0.14884779	      0.00079610	     -0.11888861	      1.08702127	      0.00590358	      0.00000000	      0.00000000	     22.74428444	     -0.41257555	     11.40762292	     21.69933394	     -2.76477508	     73.82335861	     30.90631022	     86.48054896	     13.79413609	     11.77058507	     24.26692870	     -6.90133889	     83.82841360	     32.47870677	     88.46462651	     -1.68661175	    -12.54983871
      3.10204082	     -0.10199906	     -2.50448631	     89.76093802	      0.21349463	      0.76293312	      0.78086252	      2.50374041	     -1.19675913	    -14.27539983	      8.49688041	      0.14829854	     30.91650669	     16.95751760	      0.00000000	      5.98962695	     -1.15410850	     -6.10389957	     13.71617580	      0.23939243	     29.83045598	     10.70692267	      0.00000000	     -0.02933022	      0.11832286	     -0.02435742	     -0.05446915	      0.15736941	     -0.02587975	     -0.04818662	      0.28769021	     -0.02587975	     -0.03352151	      0.28769021	     -0.02131274	     -0.02723604	      0.24128399	     -0.01979040	     -0.01675929	      0.18328212	     -0.01826806	     -0.20950283	      1.33849191	     -0.13546864	      0.00000000	      0.00000000	     22.89459098	     -0.52860438	     12.14040618	     22.20218575	     -2.75656004	     74.66613823	     30.97497083	     86.63598015	     14.16141989	     11.06438810	     24.89718905	     -6.80271104	     85.01380111	     32.22332499	     88.54435000	     -3.79910693	    -12.52752627
      3.12244898	      0.05660791	     -2.55199963	     89.68577892	      0.21307518	      0.76268238	      0.78217452	      2.74937188	     -1.07898197	    -14.00696946	      8.66095491	      0.15116218	     30.91423264	     16.63643163	      0.00000000	      6.13948834	     -1.23595366	     -5.54200598	     13.79559335	      0.24077853	     29.62433555	      9.97374594	      0.00000000	     -0.03875384	      0.14748018	      0.00437416	     -0.07196976	      0.19614863	      0.00464755	     -0.06366868	      0.35858330	      0.00464755	     -0.04429176	      0.35858330	      0.00382739	     -0.03598682	      0.30074158	      0.00355401	     -0.02214394	      0.22844679	      0.00328062	     -0.27681481	      1.66832525	      0.02432777	      0.00000000	      0.00000000	     22.96049696	     -0.73699423	     12.21208553	     22.26148412	     -3.00623145	     74.05833305	     31.37931116	     86.70349947	     14.40115533	     11.21667284	     25.87972500	     -6.23609642	     88.05100145	     31.33961800	     88.53061738	     -7.31293387	    -13.25020757
      3.14285714	      0.16729977	     -2.59739778	     89.78076771	      0.21265864	      0.76246181	      0.78324602	      2.93320773	     -1.00250923	    -14.00826274	      8.75256213	      0.15276103	     30.98174085	     16.54326486	      0.00000000	      6.27725573	     -1.25271832	     -4.73380143	     13.84584474	      0.24165558	     29.35285883	      9.08588893	      0.00000000	     -0.04340622	      0.16609234	     -0.01961749	     -0.08060970	      0.22090281	     -0.02084358	     -0.07131208	      0.40383692	     -0.02084358	     -0.04960897	      0.40383692	     -0.01716530	     -0.04030702	      0.33869550	     -0.01593921	     -0.02480232	      0.25727704	     -0.01471312	     -0.31004631	      1.87886978	     -0.10910658	      0.00000000	      0.00000000	     23.00083620	     -0.86496917	     12.30413581	     22.47852828	     -3.07602419	     74.40569893	     31.44763554	     86.12200735	     14.05135082	     10.88643504	     25.94129024	     -6.17060468	     87.66415862	     31.28364417	     88.58870227	     -8.55456824	    -12.52581345
      3.16326531	      0.29354878	     -2.62619605	     89.98663663	      0.21241530	      0.76229461	      0.78418833	      3.04395916	     -0.86435875	    -13.97878510	      8.76776838	      0.15302643	     31.04241373	     16.33156195	      0.00000000	      6.45391829	     -1.28582276	     -3.73686534	     13.98700530	      0.24411930	     29.04749834	      7.86674739	      0.00000000	     -0.04795503	      0.17650677	     -0.02678916	     -0.08905729	      0.23475400	     -0.02846348	     -0.07878532	      0.42915855	     -0.02846348	     -0.05480781	      0.42915855	     -0.02344051	     -0.04453104	      0.35993260	     -0.02176619	     -0.02740150	      0.27340898	     -0.02009187	     -0.34253799	      1.99667984	     -0.14899324	      0.00000000	      0.00000000	     22.98303077	     -0.87970680	     11.96284088	     22.35962366	     -3.13967649	     73.65385610	     31.49452199	     85.33752885	     13.51400466	     10.99104417	     25.92788036	     -6.06015978	     87.30306577	     31.17459042	     88.54015829	     -9.55837313	    -11.97724373
      3.18367347	      0.38676271	     -2.66361759	     90.16337915	      0.21237360	      0.76208893	      0.78481809	      3.13586665	     -0.74957899	    -13.95809424	      8.77482207	      0.15314954	     31.12701491	     16.17784107	      0.00000000	      6.60761209	     -1.32875855	     -3.08471650	     14.09892313	      0.24607263	     28.81194044	      6.94854825	      0.00000000	     -0.05356776	      0.17740183	      0.02969101	     -0.09948069	      0.23594443	      0.03154670	     -0.08800647	      0.43133480	      0.03154670	     -0.06122259	      0.43133480	      0.02597963	     -0.04974302	      0.36175780	      0.02412394	     -0.03060862	      0.27479543	      0.02226826	     -0.38262916	      2.00680493	      0.16513248	      0.00000000	      0.00000000	     23.12024219	     -0.89734060	     11.21835435	     21.49950522	     -3.33154086	     69.98605506	     31.97371369	     85.16812066	     13.34309115	     12.47641454	     25.86223003	     -5.99628821	     86.26675172	     31.44247042	     88.33541610	     -8.79914343	    -10.67070191
      3.20408163	      0.48382848	     -2.75850749	     90.46139596	      0.21237241	      0.76187632	      0.78524104	      3.22644996	     -0.62682226	    -14.14817253	      8.73125895	      0.15238922	     31.16783936	     16.12130453	      0.00000000	      6.88581524	     -1.49015070	     -3.23963069	     14.32845919	      0.25007879	     28.83813781	      7.21204987	      0.00000000	     -0.05271499	      0.18043675	      0.00351081	     -0.09789701	      0.23998087	      0.00373024	     -0.08660546	      0.43871391	      0.00373024	     -0.06024796	      0.43871391	      0.00307196	     -0.04895114	      0.36794661	      0.00285254	     -0.03012135	      0.27949652	      0.00263311	     -0.37653790	      2.04113657	      0.01952610	      0.00000000	      0.00000000	     23.34412522	     -0.75418978	     11.09613398	     21.03334811	     -3.28997153	     68.04764658	     32.09247580	     82.09737410	     12.47666764	     13.67838474	     25.19175418	     -6.20196385	     83.38038249	     31.79840221	     88.12122602	     -7.70778501	     -9.95747814
      3.22448980	      0.52779251	     -2.83548781	     90.66557474	      0.21250507	      0.76172871	      0.78517882	      3.25849218	     -0.57433615	    -14.44354332	      8.67857915	      0.15146978	     31.21838955	     16.31736552	      0.00000000	      6.98108736	     -1.49416508	     -2.72905264	     14.28978870	      0.24940386	     28.70284811	      6.43164105	      0.00000000	     -0.04418375	      0.17786216	     -0.00819333	     -0.08205364	      0.23655668	     -0.00870542	     -0.07258948	      0.43245407	     -0.00870542	     -0.05049761	      0.43245407	     -0.00716917	     -0.04102903	      0.36269653	     -0.00665708	     -0.02524659	      0.27550849	     -0.00614500	     -0.31560010	      2.01201237	     -0.04556887	      0.00000000	      0.00000000	     23.47486906	     -0.75421690	     10.86240263	     20.33251345	     -3.23378675	     65.92227816	     32.26416069	     78.47194390	     11.16098086	     14.52258382	     24.53275027	     -6.38883814	     80.86271723	     32.16986746	     87.88954290	     -6.70902933	     -8.96859698
      3.24489796	      0.64594581	     -2.87161330	     90.80227644	      0.21262332	      0.76163089	      0.78488427	      3.22249454	     -0.44312855	    -14.65199833	      8.59138245	      0.14994791	     31.18581449	     16.50555965	      0.00000000	      7.03438264	     -1.58914813	     -2.35726660	     14.30552084	      0.24967844	     28.64513301	      5.75346507	      0.00000000	     -0.03552743	      0.19217179	     -0.07221568	     -0.06597798	      0.25558848	     -0.07672916	     -0.05836801	      0.46724649	     -0.07672916	     -0.04060429	      0.46724649	     -0.06318872	     -0.03299077	      0.39187672	     -0.05867524	     -0.02030037	      0.29767411	     -0.05416176	     -0.25376884	      2.17388574	     -0.40164197	      0.00000000	      0.00000000	     23.53595090	     -0.77247391	     11.27915504	     19.98361261	     -3.10609400	     65.46253284	     32.20217512	     75.49883434	      9.85715678	     14.39693702	     23.78216024	     -6.55519797	     78.48577010	     32.36268245	     87.63266459	     -6.05224836	     -8.48466034
